<mxfile host="Electron" modified="2024-01-09T15:45:23.117Z" agent="Mozilla/5.0 (Windows NT 10.0; Win64; x64) AppleWebKit/537.36 (KHTML, like Gecko) draw.io/22.1.16 Chrome/120.0.6099.109 Electron/28.1.0 Safari/537.36" etag="rVi0No50EIvk-4HaIvto" version="22.1.16" type="device">
  <diagram name="Page-1" id="1oYcrS7f5eonGyXpqwsc">
    <mxGraphModel dx="880" dy="524" grid="1" gridSize="10" guides="1" tooltips="1" connect="1" arrows="1" fold="1" page="1" pageScale="1" pageWidth="3300" pageHeight="2339" math="0" shadow="0">
      <root>
        <mxCell id="0" />
        <mxCell id="1" parent="0" />
        <mxCell id="F_t225kh7yQCylB8wm9j-2" value="" style="group" vertex="1" connectable="0" parent="1">
          <mxGeometry x="150" y="60" width="100" height="900" as="geometry" />
        </mxCell>
        <mxCell id="F_t225kh7yQCylB8wm9j-3" value="" style="shape=umlLifeline;perimeter=lifelinePerimeter;whiteSpace=wrap;html=1;container=1;dropTarget=0;collapsible=0;recursiveResize=0;outlineConnect=0;portConstraint=eastwest;newEdgeStyle={&quot;curved&quot;:0,&quot;rounded&quot;:0};participant=umlActor;" vertex="1" parent="F_t225kh7yQCylB8wm9j-2">
          <mxGeometry x="40" width="20" height="900.0000000000001" as="geometry" />
        </mxCell>
        <mxCell id="F_t225kh7yQCylB8wm9j-4" value="" style="html=1;points=[[0,0,0,0,5],[0,1,0,0,-5],[1,0,0,0,5],[1,1,0,0,-5]];perimeter=orthogonalPerimeter;outlineConnect=0;targetShapes=umlLifeline;portConstraint=eastwest;newEdgeStyle={&quot;curved&quot;:0,&quot;rounded&quot;:0};" vertex="1" parent="F_t225kh7yQCylB8wm9j-3">
          <mxGeometry x="5" y="603.2945054945055" width="10" height="30" as="geometry" />
        </mxCell>
        <mxCell id="F_t225kh7yQCylB8wm9j-5" value="Administrateur" style="text;html=1;align=center;verticalAlign=middle;resizable=0;points=[];autosize=1;strokeColor=none;fillColor=none;" vertex="1" parent="F_t225kh7yQCylB8wm9j-2">
          <mxGeometry y="105.88235294117646" width="100" height="30" as="geometry" />
        </mxCell>
        <mxCell id="F_t225kh7yQCylB8wm9j-6" value="" style="html=1;points=[[0,0,0,0,5],[0,1,0,0,-5],[1,0,0,0,5],[1,1,0,0,-5]];perimeter=orthogonalPerimeter;outlineConnect=0;targetShapes=umlLifeline;portConstraint=eastwest;newEdgeStyle={&quot;curved&quot;:0,&quot;rounded&quot;:0};" vertex="1" parent="F_t225kh7yQCylB8wm9j-2">
          <mxGeometry x="45" y="360.00418316653463" width="10" height="52.94117647058823" as="geometry" />
        </mxCell>
        <mxCell id="F_t225kh7yQCylB8wm9j-9" value="S&#39;authentifier" style="text;html=1;align=center;verticalAlign=middle;resizable=0;points=[];autosize=1;strokeColor=none;fillColor=none;" vertex="1" parent="1">
          <mxGeometry x="280.00166666666667" y="305" width="90" height="30" as="geometry" />
        </mxCell>
        <mxCell id="F_t225kh7yQCylB8wm9j-11" value="Systeme" style="shape=umlLifeline;perimeter=lifelinePerimeter;whiteSpace=wrap;html=1;container=1;dropTarget=0;collapsible=0;recursiveResize=0;outlineConnect=0;portConstraint=eastwest;newEdgeStyle={&quot;curved&quot;:0,&quot;rounded&quot;:0};" vertex="1" parent="1">
          <mxGeometry x="460" y="60" width="100" height="900" as="geometry" />
        </mxCell>
        <mxCell id="F_t225kh7yQCylB8wm9j-14" value="" style="html=1;points=[[0,0,0,0,5],[0,1,0,0,-5],[1,0,0,0,5],[1,1,0,0,-5]];perimeter=orthogonalPerimeter;outlineConnect=0;targetShapes=umlLifeline;portConstraint=eastwest;newEdgeStyle={&quot;curved&quot;:0,&quot;rounded&quot;:0};" vertex="1" parent="F_t225kh7yQCylB8wm9j-11">
          <mxGeometry x="45" y="360.00418316653463" width="10" height="52.94117647058823" as="geometry" />
        </mxCell>
        <mxCell id="F_t225kh7yQCylB8wm9j-8" value="ref" style="shape=umlFrame;whiteSpace=wrap;html=1;pointerEvents=0;" vertex="1" parent="1">
          <mxGeometry x="130" y="250" width="430" height="140" as="geometry" />
        </mxCell>
        <mxCell id="F_t225kh7yQCylB8wm9j-15" style="edgeStyle=orthogonalEdgeStyle;rounded=0;orthogonalLoop=1;jettySize=auto;html=1;curved=0;" edge="1" parent="1" source="F_t225kh7yQCylB8wm9j-6" target="F_t225kh7yQCylB8wm9j-14">
          <mxGeometry relative="1" as="geometry">
            <Array as="points">
              <mxPoint x="390" y="430" />
              <mxPoint x="390" y="430" />
            </Array>
          </mxGeometry>
        </mxCell>
        <mxCell id="F_t225kh7yQCylB8wm9j-16" style="edgeStyle=orthogonalEdgeStyle;rounded=0;orthogonalLoop=1;jettySize=auto;html=1;curved=0;dashed=1;endArrow=open;endFill=0;" edge="1" parent="1" source="F_t225kh7yQCylB8wm9j-14" target="F_t225kh7yQCylB8wm9j-6">
          <mxGeometry relative="1" as="geometry">
            <Array as="points">
              <mxPoint x="350" y="470" />
              <mxPoint x="350" y="470" />
            </Array>
          </mxGeometry>
        </mxCell>
        <mxCell id="F_t225kh7yQCylB8wm9j-18" value="Etudiants insérés" style="edgeLabel;html=1;align=center;verticalAlign=middle;resizable=0;points=[];" vertex="1" connectable="0" parent="F_t225kh7yQCylB8wm9j-16">
          <mxGeometry x="0.1" y="-2" relative="1" as="geometry">
            <mxPoint y="-8" as="offset" />
          </mxGeometry>
        </mxCell>
        <mxCell id="F_t225kh7yQCylB8wm9j-17" value="Inserer Etudiant" style="text;html=1;align=center;verticalAlign=middle;resizable=0;points=[];autosize=1;strokeColor=none;fillColor=none;" vertex="1" parent="1">
          <mxGeometry x="295" y="408" width="110" height="30" as="geometry" />
        </mxCell>
      </root>
    </mxGraphModel>
  </diagram>
</mxfile>
